<?xml version="1.0" encoding="UTF-8" standalone="no"?>
<!-- Created with Inkscape (http://www.inkscape.org/) -->

<svg
   width="1080"
   height="1080"
   viewBox="0 0 1080 1080"
   version="1.1"
   id="svg1"
   inkscape:version="1.3.2 (091e20ef0f, 2023-11-25)"
   sodipodi:docname="dpyp_logo.svg"
   inkscape:export-filename="dpyp_logo.png"
   inkscape:export-xdpi="96"
   inkscape:export-ydpi="96"
   xmlns:inkscape="http://www.inkscape.org/namespaces/inkscape"
   xmlns:sodipodi="http://sodipodi.sourceforge.net/DTD/sodipodi-0.dtd"
   xmlns="http://www.w3.org/2000/svg"
   xmlns:svg="http://www.w3.org/2000/svg">
  <sodipodi:namedview
     id="namedview1"
     pagecolor="#505050"
     bordercolor="#ffffff"
     borderopacity="1"
     inkscape:showpageshadow="0"
     inkscape:pageopacity="0"
     inkscape:pagecheckerboard="1"
     inkscape:deskcolor="#505050"
     inkscape:document-units="px"
     inkscape:zoom="0.29"
     inkscape:cx="562.06897"
     inkscape:cy="536.2069"
     inkscape:window-width="1280"
     inkscape:window-height="1403"
     inkscape:window-x="20"
     inkscape:window-y="20"
     inkscape:window-maximized="0"
     inkscape:current-layer="layer1" />
  <defs
     id="defs1">
    <clipPath
       clipPathUnits="userSpaceOnUse"
       id="clipPath18">
      <g
         id="g19"
         transform="matrix(1.0070719,0,0,1.0070719,-7.5992201,-3.8675306)">
        <g
           inkscape:label="Clip"
           id="use19"
           transform="matrix(0.99297776,0,0,0.99297776,7.5458566,3.8403719)"
           clip-path="url(#clipPath18)">
          <circle
             style="fill:#aaccff;fill-opacity:1;stroke-width:0.967342"
             id="circle19"
             cx="536.2196"
             cy="539.95129"
             r="488.87408"
             transform="matrix(0.99297776,0,0,0.99297776,7.5458566,3.8403719)" />
        </g>
      </g>
    </clipPath>
    <clipPath
       clipPathUnits="userSpaceOnUse"
       id="clipPath21">
      <g
         inkscape:label="Clip"
         id="use21">
        <circle
           style="fill:#aaccff;fill-opacity:1;stroke-width:0.960549"
           id="circle21"
           cx="540"
           cy="540"
           r="485.4411" />
      </g>
    </clipPath>
    <clipPath
       clipPathUnits="userSpaceOnUse"
       id="clipPath2">
      <g
         id="g3">
        <path
           sodipodi:type="star"
           style="fill:#2b2200"
           id="path2"
           inkscape:flatsided="false"
           sodipodi:sides="3"
           sodipodi:cx="1864.8168"
           sodipodi:cy="1917.7397"
           sodipodi:r1="513.55603"
           sodipodi:r2="513.55603"
           sodipodi:arg1="0.52359878"
           sodipodi:arg2="1.5707963"
           inkscape:rounded="0"
           inkscape:randomized="0"
           transform="matrix(0.97523497,0,0,0.97523497,-1278.6345,-1330.2469)"
           clip-path="none"
           d="m 2309.5693,2174.5178 -444.7525,256.778 -444.7526,-256.778 0,-513.5561 444.7526,-256.778 444.7525,256.778 z" />
      </g>
    </clipPath>
    <clipPath
       clipPathUnits="userSpaceOnUse"
       id="clipPath3">
      <g
         id="g5">
        <path
           sodipodi:type="star"
           style="fill:#2b2200"
           id="path5"
           inkscape:flatsided="false"
           sodipodi:sides="3"
           sodipodi:cx="1864.8168"
           sodipodi:cy="1917.7397"
           sodipodi:r1="513.55603"
           sodipodi:r2="513.55603"
           sodipodi:arg1="0.52359878"
           sodipodi:arg2="1.5707963"
           inkscape:rounded="0"
           inkscape:randomized="0"
           transform="matrix(0.97523497,0,0,0.97523497,-1278.6345,-1330.2469)"
           clip-path="none"
           d="m 2309.5693,2174.5178 -444.7525,256.778 -444.7526,-256.778 0,-513.5561 444.7526,-256.778 444.7525,256.778 z" />
      </g>
    </clipPath>
    <clipPath
       clipPathUnits="userSpaceOnUse"
       id="clipPath5">
      <g
         id="g6"
         transform="matrix(0.99796752,0.32564302,-0.17117686,0.95874778,0,0)">
        <path
           sodipodi:type="star"
           style="fill:#2b2200"
           id="path6"
           inkscape:flatsided="false"
           sodipodi:sides="3"
           sodipodi:cx="1864.8168"
           sodipodi:cy="1917.7397"
           sodipodi:r1="513.55603"
           sodipodi:r2="513.55603"
           sodipodi:arg1="0.52359878"
           sodipodi:arg2="1.5707963"
           inkscape:rounded="0"
           inkscape:randomized="0"
           transform="matrix(0.97523497,0,0,0.97523497,-1278.6345,-1330.2469)"
           clip-path="none"
           d="m 2309.5693,2174.5178 -444.7525,256.778 -444.7526,-256.778 0,-513.5561 444.7526,-256.778 444.7525,256.778 z" />
      </g>
    </clipPath>
    <clipPath
       clipPathUnits="userSpaceOnUse"
       id="clipPath6">
      <g
         id="g7"
         transform="matrix(0.99085036,0.3038364,-0.18328744,0.96076125,0,0)">
        <path
           sodipodi:type="star"
           style="fill:#2b2200"
           id="path7"
           inkscape:flatsided="false"
           sodipodi:sides="3"
           sodipodi:cx="1864.8168"
           sodipodi:cy="1917.7397"
           sodipodi:r1="513.55603"
           sodipodi:r2="513.55603"
           sodipodi:arg1="0.52359878"
           sodipodi:arg2="1.5707963"
           inkscape:rounded="0"
           inkscape:randomized="0"
           transform="matrix(0.97523497,0,0,0.97523497,-1278.6345,-1330.2469)"
           clip-path="none"
           d="m 2309.5693,2174.5178 -444.7525,256.778 -444.7526,-256.778 0,-513.5561 444.7526,-256.778 444.7525,256.778 z" />
      </g>
    </clipPath>
    <clipPath
       clipPathUnits="userSpaceOnUse"
       id="clipPath7">
      <g
         id="g8">
        <path
           sodipodi:type="star"
           style="fill:#2b2200"
           id="path8"
           inkscape:flatsided="false"
           sodipodi:sides="3"
           sodipodi:cx="1864.8168"
           sodipodi:cy="1917.7397"
           sodipodi:r1="513.55603"
           sodipodi:r2="513.55603"
           sodipodi:arg1="0.52359878"
           sodipodi:arg2="1.5707963"
           inkscape:rounded="0"
           inkscape:randomized="0"
           transform="matrix(0.97523497,0,0,0.97523497,-1278.6345,-1330.2469)"
           clip-path="none"
           d="m 2309.5693,2174.5178 -444.7525,256.778 -444.7526,-256.778 0,-513.5561 444.7526,-256.778 444.7525,256.778 z" />
      </g>
    </clipPath>
    <clipPath
       clipPathUnits="userSpaceOnUse"
       id="clipPath8">
      <g
         id="g9"
         transform="matrix(1.0253939,0,0,1.0253939,1311.104,1364.0271)">
        <path
           sodipodi:type="star"
           style="fill:#2b2200"
           id="path9"
           inkscape:flatsided="false"
           sodipodi:sides="3"
           sodipodi:cx="1864.8168"
           sodipodi:cy="1917.7397"
           sodipodi:r1="513.55603"
           sodipodi:r2="513.55603"
           sodipodi:arg1="0.52359878"
           sodipodi:arg2="1.5707963"
           inkscape:rounded="0"
           inkscape:randomized="0"
           transform="matrix(0.97523497,0,0,0.97523497,-1278.6345,-1330.2469)"
           clip-path="none"
           d="m 2309.5693,2174.5178 -444.7525,256.778 -444.7526,-256.778 0,-513.5561 444.7526,-256.778 444.7525,256.778 z" />
      </g>
    </clipPath>
  </defs>
  <g
     inkscape:groupmode="layer"
     id="layer2"
     inkscape:label="Background" />
  <g
     inkscape:label="Layer 1"
     inkscape:groupmode="layer"
     id="layer1">
    <path
       sodipodi:type="star"
       style="fill:#cbe0ff;fill-opacity:1"
       id="path1-6"
       inkscape:flatsided="false"
       sodipodi:sides="3"
       sodipodi:cx="1864.8168"
       sodipodi:cy="1917.7397"
       sodipodi:r1="513.55603"
       sodipodi:r2="513.55603"
       sodipodi:arg1="0.52359878"
       sodipodi:arg2="1.5707963"
       inkscape:rounded="0"
       inkscape:randomized="0"
       d="m 2309.5693,2174.5178 -444.7525,256.778 -444.7526,-256.778 0,-513.5561 444.7526,-256.778 444.7525,256.778 z"
       transform="matrix(0.97523497,0,0,0.97523497,-1278.6345,-1330.2469)"
       clip-path="url(#clipPath8)" />
    <path
       style="font-style:oblique;font-weight:bold;font-size:240px;font-family:NewComputerModernMono10;-inkscape-font-specification:'NewComputerModernMono10 Bold Oblique';fill:#152a4a;stroke-width:1.08238"
       d="m 399.55633,434.45545 c -0.13507,-0.76755 -0.0588,-1.83589 -0.19445,-2.60347 -1.17094,-6.65164 -7.61181,-5.78164 -11.7052,-5.06116 l -9.21004,1.62126 4.63075,-129.53052 c 0.10569,-2.39257 0.0468,-4.22848 -0.2232,-5.76347 -0.85557,-4.86081 -3.7292,-6.20133 -11.40414,-4.85037 l -18.16425,3.1973 c -4.8608,0.85569 -12.23508,2.41742 -12.61544,12.2435 -0.0761,1.06849 0.10434,2.09178 0.23953,2.85933 1.1708,6.65167 7.5666,5.52578 11.40413,4.8504 l 9.21004,-1.62128 -1.05323,34.47441 c -7.6875,-4.71343 -17.18202,-6.20724 -26.90378,-4.49596 -28.14174,4.95349 -54.05208,34.57163 -55.15038,68.79016 -0.21266,4.78512 0.0855,9.48022 0.80674,13.57362 4.45824,25.3276 24.32988,40.82043 47.86666,36.67743 12.53587,-2.20651 22.38012,-9.21459 29.95276,-17.14164 0.0148,1.58006 0.23953,2.85918 0.41969,3.88261 0.76554,4.3491 3.12734,5.77976 11.31411,4.33865 l 18.16426,-3.19729 c 4.86079,-0.85569 12.23495,-2.41742 12.61544,-12.24351 z m -41.44208,-34.64331 c -0.2616,13.4979 -11.63243,35.80902 -29.54082,38.9614 -14.07087,2.47668 -25.60833,-7.62544 -28.49042,-23.99885 -0.54031,-3.06998 -0.82491,-6.18502 -0.68784,-9.9018 0.8529,-23.62489 17.59437,-42.39739 34.2235,-45.32454 13.04758,-2.29666 22.99055,6.23984 24.92703,17.24075 0.27017,1.53498 0.28448,3.11503 0.29892,4.69495 z m 171.23074,-35.67956 c 0.25771,-4.52928 -0.29704,-9.1793 -1.0626,-13.52854 -4.45824,-25.32759 -24.07402,-40.86551 -47.61078,-36.7225 -11.00077,1.93634 -21.62704,7.49946 -30.22294,15.60665 0.12037,-0.81263 -0.0588,-1.83591 -0.19446,-2.60347 -0.72062,-4.09325 -3.63918,-5.68963 -11.31425,-4.33869 l -18.16411,3.19729 c -4.86095,0.85573 -12.19003,2.6733 -12.6156,12.24367 -0.0761,1.06834 0.10435,2.09162 0.23955,2.85919 1.17092,6.65165 7.56673,5.52579 11.40425,4.85038 l 9.21008,-1.62126 -4.51202,133.20222 -8.95422,1.57618 c -4.8608,0.8557 -12.49078,2.46249 -12.87129,12.28857 0.18014,1.02344 0.10434,2.09177 0.23954,2.85921 1.17093,6.65164 7.56672,5.52592 11.6601,4.80531 l 39.65434,-6.98001 c 4.34909,-0.76555 11.97909,-2.37236 12.14882,-11.89763 0.0761,-1.06836 0.15138,-2.13671 0.0161,-2.90427 -1.17095,-6.65166 -7.61181,-5.78164 -11.70519,-5.06117 l -8.95407,1.57618 1.58501,-46.43717 c 9.41695,7.04646 18.94224,7.21605 26.36144,5.91017 28.14174,-4.95363 54.51869,-34.91763 55.66209,-68.88031 z m -20.97851,3.69268 c -0.89796,23.36903 -17.8502,42.44251 -34.47934,45.36963 -14.83843,2.6119 -22.38681,-10.30249 -24.36827,-21.55922 -0.45031,-2.5584 -0.59983,-4.90589 -0.44842,-7.04258 l 0.64021,-18.83979 c 0.3824,-14.31042 14.38342,-29.1717 28.96586,-31.73852 14.58259,-2.56682 26.25514,8.30271 29.04719,24.16456 0.54033,3.06997 0.86988,6.44087 0.64277,9.64592 z m 159.97707,-75.6367 c 0.0761,-1.06833 -0.10432,-2.09163 -0.23952,-2.85917 -1.1708,-6.65165 -7.10012,-5.8718 -11.44921,-5.10624 l -29.16513,5.13379 c -4.60496,0.81062 -11.93416,2.62819 -12.40469,11.94258 -0.0307,1.32421 0.14953,2.34761 0.28463,3.11504 1.17078,6.65178 7.055,5.61592 11.40412,4.85038 l 4.09338,-0.72048 -24.31903,73.12229 -23.01023,-64.79121 3.32583,-0.58539 c 4.60495,-0.81063 11.9791,-2.37238 12.40469,-11.94272 0.0761,-1.06836 -0.10436,-2.09164 -0.23955,-2.85919 -1.17093,-6.65165 -7.10011,-5.87179 -11.44934,-5.10624 l -29.165,5.13378 c -4.86094,0.85555 -11.97925,2.37236 -12.35961,12.19844 -0.0307,1.32421 0.10434,2.09177 0.2394,2.85918 1.17095,6.6518 7.31089,5.57101 11.40428,4.8504 l 6.39593,-1.12574 32.52573,87.38228 c -1.03959,3.08441 -7.0974,22.61391 -10.20001,28.9629 -5.45211,10.98258 -13.62631,18.48793 -18.48726,19.34348 0.33156,-1.11329 3.01059,-2.37624 3.1026,-6.34886 0.0761,-1.06835 -0.0588,-1.83577 -0.23954,-2.85918 -1.03571,-5.88422 -5.59372,-9.30208 -11.98951,-8.17621 -7.93093,1.39603 -13.1253,7.84933 -13.35428,15.53872 0.0588,1.8359 0.0737,3.41596 0.29895,4.6951 1.71124,9.72175 9.80401,16.73759 21.31647,14.71109 25.58345,-4.50331 39.54918,-42.04178 40.58877,-45.1262 l 42.14251,-123.2091 6.13995,-1.08078 c 4.6051,-0.81063 11.97923,-2.37236 12.40467,-11.94274 z m 129.62711,24.65956 c 0.25771,-4.52926 -0.29706,-9.17929 -1.0626,-13.52854 -4.45825,-25.32758 -24.07403,-40.8655 -47.61078,-36.72249 -11.00077,1.93649 -21.62705,7.49958 -30.22295,15.60666 0.12038,-0.81251 -0.0588,-1.83592 -0.19446,-2.60334 -0.72062,-4.0934 -3.63919,-5.68977 -11.31412,-4.33882 l -18.16425,3.19743 c -4.86094,0.85557 -12.19002,2.67316 -12.61545,12.24352 -0.0761,1.06835 0.10435,2.09162 0.23954,2.85919 1.17079,6.65165 7.56659,5.52593 11.40412,4.8504 l 9.21004,-1.62128 -4.51186,133.20236 -8.95433,1.57603 c -4.86081,0.85572 -12.49079,2.46251 -12.87118,12.28861 0.18003,1.02339 0.10433,2.09176 0.23955,2.85916 1.17081,6.65179 7.5666,5.52595 11.65997,4.80547 l 39.65433,-6.98014 c 4.34912,-0.76557 11.9791,-2.37237 12.14881,-11.89765 0.0761,-1.06835 0.15141,-2.1367 0.0161,-2.90425 -1.17097,-6.65167 -7.61183,-5.78165 -11.70508,-5.06118 l -8.9542,1.57618 1.58501,-46.43718 c 9.41694,7.04647 18.94223,7.21619 26.36146,5.91018 28.14171,-4.95363 54.51869,-34.91763 55.66208,-68.88032 z m -20.97852,3.6927 c -0.89797,23.36903 -17.85007,42.44248 -34.47935,45.36963 -14.83843,2.61189 -22.3868,-10.30249 -24.36825,-21.55924 -0.45031,-2.55825 -0.59985,-4.90588 -0.44845,-7.04259 l 0.64026,-18.83965 c 0.38237,-14.31052 14.38339,-29.17169 28.96597,-31.73864 14.58243,-2.56684 26.25501,8.30284 29.04704,24.16455 0.54034,3.06999 0.87002,6.44087 0.64278,9.64594 z"
       id="text11"
       aria-label="dpyp"
       clip-path="url(#clipPath7)"
       transform="translate(1.8079676,8)" />
    <ellipse
       style="fill:#479c9c;fill-opacity:1;stroke-width:0.629022"
       id="ellipse3"
       cx="481.18884"
       cy="829.1684"
       rx="71.878441"
       ry="140.10268"
       transform="matrix(0.95345773,-0.3015267,0.18189413,0.98331812,0,0)"
       clip-path="url(#clipPath6)" />
    <ellipse
       style="fill:#142c2c;fill-opacity:1;stroke-width:0.550502"
       id="ellipse2"
       cx="493.73248"
       cy="838.62122"
       rx="61.143238"
       ry="126.14774"
       transform="matrix(0.9468724,-0.32160949,0.1690566,0.98560634,0,0)"
       clip-path="url(#clipPath5)" />
    <path
       style="font-size:173.333px;line-height:0;font-family:NewComputerModernMono10;-inkscape-font-specification:NewComputerModernMono10;letter-spacing:0px;word-spacing:0px;fill:#477ccb;stroke-width:1.12984"
       d="m 173.7142,791.20494 c -1.02879,-6.08725 -4.41878,-5.48191 -6.67868,-5.07835 l -12.85329,2.29524 -17.25918,-102.10896 c -0.53103,-3.1418 -1.36075,-8.05089 -5.59809,-7.29424 -2.68373,0.47925 -3.13292,2.98694 -3.44089,5.46941 -2.54609,17.64935 -9.52567,21.12092 -12.1429,21.99287 -2.22679,0.59991 -5.1266,1.52232 -4.19714,7.02049 0.82971,4.90909 3.53804,5.43691 5.65671,5.05857 2.68373,-0.47923 8.27562,-2.69154 13.22918,-11.26314 l 14.00642,82.86536 -12.85328,2.29525 c -2.25991,0.40356 -5.64976,1.0089 -4.62084,7.09617 0.99568,5.89087 4.52677,5.26033 6.64545,4.88199 l 35.45258,-6.33086 c 2.11868,-0.37833 5.64977,-1.00891 4.65395,-6.8998 z m 69.546,-68.04884 c -6.17345,-36.52359 -24.9284,-59.6745 -40.46541,-56.90003 -15.81948,2.82492 -25.49641,31.65987 -19.4557,67.39801 6.17358,36.52358 24.92853,59.6745 40.46541,56.90003 15.81945,-2.82493 25.49641,-31.65986 19.4557,-67.39801 z m -10.11095,-0.41965 c 4.91219,29.06177 -0.3523,53.87214 -11.36937,55.83949 -11.01706,1.96735 -24.11454,-19.56406 -29.0267,-48.62585 -4.84595,-28.66906 1.61406,-49.84937 12.06622,-51.71585 10.31093,-1.84125 23.45079,15.63679 28.32985,44.50221 z m 88.87205,41.9849 c -1.02879,-6.08727 -4.41879,-5.48193 -6.67869,-5.07838 l -12.85328,2.29526 -17.25919,-102.10896 c -0.53102,-3.14182 -1.36087,-8.05091 -5.59821,-7.29423 -2.6836,0.47923 -3.13279,2.98693 -3.44075,5.46942 -2.54611,17.64932 -9.52568,21.12089 -12.14291,21.99284 -2.22678,0.59992 -5.1266,1.52234 -4.19715,7.02049 0.82972,4.90911 3.53804,5.43691 5.65672,5.05856 2.68373,-0.47922 8.27562,-2.69152 13.22917,-11.2631 l 14.00642,82.86532 -12.85328,2.29526 c -2.2599,0.40356 -5.64976,1.00889 -4.62084,7.09616 0.99569,5.89091 4.52677,5.26034 6.64546,4.882 l 35.45245,-6.33085 c 2.11868,-0.37834 5.6499,-1.00889 4.65408,-6.89979 z m 69.54599,-68.04885 c -6.17344,-36.52358 -24.92852,-59.67451 -40.46542,-56.90003 -15.81944,2.82493 -25.4964,31.65985 -19.45569,67.398 6.17358,36.52359 24.92854,59.67449 40.46541,56.90003 15.81947,-2.82492 25.49642,-31.65986 19.4557,-67.398 z m -10.11107,-0.41965 c 4.91231,29.06179 -0.35217,53.87212 -11.36924,55.83948 -11.01706,1.96736 -24.11452,-19.56407 -29.02671,-48.62585 -4.84595,-28.66905 1.61407,-49.84938 12.06623,-51.71583 10.31091,-1.84124 23.45079,15.63679 28.32972,44.5022 z m 88.87218,41.98488 c -1.02894,-6.08726 -4.41879,-5.48191 -6.67868,-5.07835 l -12.85331,2.29525 -17.25917,-102.1089 c -0.53103,-3.14181 -1.36087,-8.0509 -5.59823,-7.29425 -2.68358,0.47922 -3.13278,2.98692 -3.44074,5.46936 -2.5461,17.64935 -9.52567,21.12092 -12.14304,21.99286 -2.22666,0.59992 -5.12647,1.52233 -4.19715,7.0205 0.82986,4.90908 3.53818,5.4369 5.65686,5.05856 2.68371,-0.47922 8.27563,-2.69154 13.22902,-11.26314 l 14.00658,82.86537 -12.85329,2.29524 c -2.25991,0.40355 -5.64976,1.00889 -4.62084,7.09616 0.99569,5.89089 4.52678,5.26034 6.64544,4.88199 l 35.45246,-6.33084 c 2.11868,-0.37833 5.6499,-1.00891 4.65409,-6.89981 z m 69.54597,-68.04884 c -6.17355,-36.52359 -24.92853,-59.67454 -40.4654,-56.89997 -15.81946,2.82482 -25.4964,31.65981 -19.45568,67.39794 6.17357,36.52359 24.92853,59.67451 40.4654,56.90004 15.81946,-2.82494 25.49641,-31.65986 19.45568,-67.39801 z m -10.11105,-0.41964 c 4.91229,29.06177 -0.35217,53.87213 -11.36923,55.83948 -11.01707,1.96736 -24.11455,-19.56406 -29.02672,-48.62585 -4.84596,-28.66906 1.61406,-49.84937 12.06623,-51.71589 10.31092,-1.84124 23.45077,15.63683 28.32972,44.50226 z m 88.87218,41.98489 c -1.02894,-6.08726 -4.4188,-5.48192 -6.67869,-5.07837 l -12.8533,2.29525 -17.25919,-102.10901 c -0.531,-3.1418 -1.36086,-8.05089 -5.59821,-7.29412 -2.68358,0.47924 -3.13278,2.98693 -3.44076,5.46938 -2.54609,17.64935 -9.52565,21.12091 -12.14302,21.99289 -2.22666,0.59984 -5.12647,1.52232 -4.19715,7.02042 0.82984,4.90911 3.53818,5.43691 5.65685,5.05857 2.68372,-0.47922 8.27562,-2.69152 13.22903,-11.26307 l 14.00657,82.86529 -12.85328,2.29524 c -2.25991,0.40357 -5.64976,1.00891 -4.62083,7.09617 0.99567,5.89091 4.52677,5.26035 6.64544,4.88201 l 35.45246,-6.33086 c 2.11867,-0.37833 5.64989,-1.00888 4.65408,-6.89979 z m 69.54597,-68.04886 c -6.17356,-36.52358 -24.92853,-59.67452 -40.46539,-56.89996 -15.81947,2.82481 -25.49641,31.6598 -19.4557,67.39795 6.17344,36.52359 24.92853,59.67448 40.46541,56.90002 15.81945,-2.82493 25.49641,-31.65986 19.45568,-67.39801 z m -10.11105,-0.41964 c 4.91231,29.0618 -0.35217,53.87213 -11.36924,55.83949 -11.01707,1.96735 -24.11455,-19.56408 -29.02685,-48.62587 -4.84582,-28.66902 1.6142,-49.84935 12.06634,-51.71584 10.31094,-1.84126 23.45066,15.63686 28.32975,44.50222 z m 88.87216,41.98489 c -1.02892,-6.08726 -4.41877,-5.48191 -6.67867,-5.07836 l -12.8533,2.29525 -17.25918,-102.10899 c -0.53103,-3.14181 -1.36087,-8.0509 -5.59821,-7.29425 -2.68361,0.47922 -3.13279,2.98693 -3.44078,5.46949 -2.54608,17.64937 -9.52567,21.12092 -12.14301,21.99278 -2.22666,0.59995 -5.12647,1.52232 -4.19714,7.02054 0.82982,4.90909 3.53817,5.43689 5.65684,5.05856 2.68359,-0.47923 8.27549,-2.69158 13.22902,-11.26318 l 14.00657,82.8654 -12.85327,2.29525 c -2.25991,0.40355 -5.64977,1.00889 -4.62097,7.09617 0.99581,5.89088 4.52689,5.26032 6.64557,4.88198 l 35.45246,-6.33084 c 2.11867,-0.37833 5.64977,-1.00891 4.65407,-6.8998 z"
       id="text12"
       aria-label="101010101"
       clip-path="url(#clipPath3)"
       transform="rotate(-0.13884061,3142.353,23.551106)" />
    <path
       id="path3"
       style="fill:#479c9c;fill-opacity:1;stroke-width:0.61082"
       d="m 1000.3252,456.16162 -413.28662,75.79738 0.0167,0.17229 a 140.98538,67.493272 82.85827 0 1 79.08584,118.11234 140.98538,67.493272 82.85827 0 1 -37.98179,158.82597 l 399.80427,-73.32371 z"
       clip-path="url(#clipPath2)" />
  </g>
  <g
     inkscape:groupmode="layer"
     id="layer4"
     inkscape:label="Frame">
    <path
       id="path4"
       clip-path="none"
       style="fill:#152a4a;fill-opacity:1;stroke-width:1.04161"
       d="M 540,5.0741963 76.7402,272.53713 v 534.9258 L 540,1074.9258 1003.2598,807.46293 v -534.9258 z m 0,47.4786007 422.1426,243.722533 v 487.4494 L 540,1027.4472 117.8575,783.72473 v -487.4494 z" />
  </g>
</svg>
