<?xml version="1.0" encoding="UTF-8" standalone="no"?>
<!-- Created with Inkscape (http://www.inkscape.org/) -->

<svg
   width="1080"
   height="1080"
   viewBox="0 0 1080 1080"
   version="1.1"
   id="svg1"
   inkscape:version="1.3.2 (091e20ef0f, 2023-11-25)"
   sodipodi:docname="favicon.svg"
   inkscape:export-filename="mohws_logo.png"
   inkscape:export-xdpi="96"
   inkscape:export-ydpi="96"
   xmlns:inkscape="http://www.inkscape.org/namespaces/inkscape"
   xmlns:sodipodi="http://sodipodi.sourceforge.net/DTD/sodipodi-0.dtd"
   xmlns="http://www.w3.org/2000/svg"
   xmlns:svg="http://www.w3.org/2000/svg">
  <sodipodi:namedview
     id="namedview1"
     pagecolor="#505050"
     bordercolor="#ffffff"
     borderopacity="1"
     inkscape:showpageshadow="0"
     inkscape:pageopacity="0"
     inkscape:pagecheckerboard="1"
     inkscape:deskcolor="#505050"
     inkscape:document-units="px"
     inkscape:zoom="0.5"
     inkscape:cx="603"
     inkscape:cy="659"
     inkscape:window-width="1920"
     inkscape:window-height="1003"
     inkscape:window-x="0"
     inkscape:window-y="0"
     inkscape:window-maximized="1"
     inkscape:current-layer="layer1" />
  <defs
     id="defs1">
    <clipPath
       clipPathUnits="userSpaceOnUse"
       id="clipPath18">
      <g
         id="g19"
         transform="matrix(1.0070719,0,0,1.0070719,-7.5992201,-3.8675306)">
        <g
           inkscape:label="Clip"
           id="use19"
           transform="matrix(0.99297776,0,0,0.99297776,7.5458566,3.8403719)"
           clip-path="url(#clipPath18)">
          <circle
             style="fill:#aaccff;fill-opacity:1;stroke-width:0.967342"
             id="circle19"
             cx="536.2196"
             cy="539.95129"
             r="488.87408"
             transform="matrix(0.99297776,0,0,0.99297776,7.5458566,3.8403719)" />
        </g>
      </g>
    </clipPath>
    <clipPath
       clipPathUnits="userSpaceOnUse"
       id="clipPath21">
      <g
         inkscape:label="Clip"
         id="use21">
        <circle
           style="fill:#aaccff;fill-opacity:1;stroke-width:0.960549"
           id="circle21"
           cx="540"
           cy="540"
           r="485.4411" />
      </g>
    </clipPath>
  </defs>
  <g
     inkscape:label="Layer 1"
     inkscape:groupmode="layer"
     id="layer1">
    <path
       id="path23"
       style="fill:#2c5aa0;fill-opacity:1;stroke-width:0.979204"
       d="m 205.58747,126.40595 a 531.8756,531.8756 0 0 0 -79.1817,748.00633 531.8756,531.8756 0 0 0 748.00647,79.182 531.8756,531.8756 0 0 0 79.18185,-748.00673 531.8756,531.8756 0 0 0 -748.00662,-79.1816 z m 36.4677,45.1025 a 473.8745,473.8745 0 0 1 666.4363,70.5469 473.8745,473.8745 0 0 1 -70.54701,666.43613 473.8745,473.8745 0 0 1 -666.43619,-70.5469 473.8745,473.8745 0 0 1 70.547,-666.43613 z" />
    <text
       xml:space="preserve"
       style="font-weight:bold;font-size:727.506px;line-height:0;font-family:'Liberation Mono';-inkscape-font-specification:'Liberation Mono Bold';letter-spacing:0px;fill:#2c5aa0;stroke-width:2.72814"
       x="92.946327"
       y="776.04865"
       id="text1"><tspan
         sodipodi:role="line"
         id="tspan1"
         x="92.946327"
         y="776.04865"
         style="stroke-width:2.72814;fill:#2c5aa0">JB</tspan></text>
  </g>
</svg>
